<?xml version="1.0" encoding="UTF-8" standalone="no"?>
<!DOCTYPE svg PUBLIC "-//W3C//DTD SVG 1.1//EN" "http://www.w3.org/Graphics/SVG/1.1/DTD/svg11.dtd">
<svg xmlns="http://www.w3.org/2000/svg" version="1.1" viewBox="0 0 805 512">
<path fill="#000000" d="
  M 44.06 0.00
  L 761.06 0.00
  Q 767.53 0.83 773.41 3.62
  Q 801.86 17.14 805.00 48.81
  L 804.98 461.31
  C 803.88 487.12 785.56 508.14 759.94 512.00
  L 44.69 512.00
  C 21.04 509.11 3.68 490.33 0.00 467.19
  L 0.00 45.94
  C 2.27 22.20 20.44 3.24 44.06 0.00
  Z
  M 26.78 38.86
  Q 24.01 44.33 24.01 47.25
  Q 23.99 65.71 24.01 84.00
  A 1.00 1.00 0.0 0 0 25.01 85.00
  L 779.74 85.00
  A 1.00 1.00 0.0 0 0 780.74 84.04
  Q 781.21 71.74 781.21 59.44
  Q 781.21 49.13 779.93 44.81
  C 774.45 26.28 760.39 23.00 743.00 23.00
  Q 401.13 23.00 59.27 23.01
  C 46.16 23.01 33.19 26.18 26.78 38.86
  Z
  M 25.30 469.49
  C 29.88 482.97 41.77 489.03 55.50 489.03
  Q 399.34 489.00 743.17 489.00
  Q 754.40 489.00 759.68 487.56
  Q 780.99 481.74 781.00 456.25
  Q 781.00 320.54 781.00 185.00
  A 1.00 1.00 0.0 0 0 780.00 184.00
  L 25.00 184.00
  A 1.00 1.00 0.0 0 0 24.00 185.00
  Q 23.99 322.12 24.01 459.20
  Q 24.01 465.71 25.30 469.49
  Z"
/>
<path fill="#000000" d="
  M 267.56 374.94
  Q 306.77 375.06 345.98 374.98
  A 1.01 1.00 -0.0 0 1 346.99 375.98
  Q 347.01 396.32 347.00 416.66
  C 346.98 430.82 339.01 433.98 326.23 433.98
  Q 216.27 434.03 106.31 433.97
  C 95.74 433.96 85.22 432.35 85.10 419.06
  Q 84.90 397.54 85.03 376.00
  A 1.00 1.00 0.0 0 1 86.03 375.00
  Q 126.41 375.00 167.25 375.00
  C 175.88 375.00 182.46 366.39 178.67 358.06
  C 176.75 353.84 172.52 353.02 167.85 353.02
  Q 127.59 352.99 87.49 352.99
  Q 85.05 352.99 85.05 350.76
  L 84.99 324.75
  Q 84.98 322.00 87.76 322.00
  Q 128.05 322.00 168.81 321.99
  C 172.63 321.99 177.51 319.90 178.63 316.02
  C 182.88 301.28 171.47 300.05 160.34 300.03
  Q 123.92 299.97 87.48 300.01
  Q 84.99 300.02 85.00 297.53
  Q 85.03 279.64 84.97 261.27
  C 84.94 252.23 84.98 245.62 93.37 242.22
  Q 96.31 241.03 102.44 241.02
  Q 215.84 240.98 329.25 241.02
  C 341.68 241.02 346.87 245.84 346.96 258.26
  Q 347.12 278.81 346.87 299.01
  A 1.00 1.00 0.0 0 1 345.87 300.00
  Q 304.96 299.99 264.06 300.02
  C 252.43 300.03 247.37 316.27 258.50 321.00
  Q 260.81 321.98 265.77 321.98
  Q 304.98 322.01 344.24 322.01
  Q 347.00 322.01 347.00 324.75
  L 347.00 351.99
  A 1.00 1.00 0.0 0 1 346.00 352.99
  Q 305.11 353.01 264.23 352.99
  Q 259.78 352.99 257.54 354.32
  C 252.31 357.40 249.94 364.98 254.68 369.87
  Q 259.56 374.91 267.56 374.94
  Z"
/>
<path fill="#000000" d="
  M 426.00 330.77
  C 414.54 330.75 394.41 333.35 394.51 318.50
  C 394.57 308.85 403.59 305.01 411.98 305.01
  Q 555.62 304.99 699.25 305.06
  C 708.02 305.06 718.56 307.95 718.12 319.04
  C 717.57 332.99 699.36 330.96 690.69 330.97
  Q 558.35 331.05 426.00 330.77
  Z"
/>
<path fill="#000000" d="
  M 399.44 383.06
  C 392.48 377.46 393.22 366.25 401.34 362.33
  Q 404.07 361.02 410.01 361.02
  Q 480.99 360.98 551.97 361.01
  Q 558.79 361.01 561.40 362.03
  C 570.67 365.67 572.12 379.49 562.55 383.89
  Q 560.17 384.98 554.18 384.99
  Q 482.98 385.02 411.79 384.99
  C 407.66 384.98 403.05 385.97 399.44 383.06
  Z"
/>
</svg>
