<svg id="visual" viewBox="0 0 540 960" width="540" height="960" xmlns="http://www.w3.org/2000/svg" xmlns:xlink="http://www.w3.org/1999/xlink" version="1.1"><rect x="0" y="0" width="540" height="960" fill="#890202"></rect><defs><linearGradient id="grad1_0" x1="0%" y1="0%" x2="100%" y2="100%"><stop offset="30%" stop-color="#890202" stop-opacity="1"></stop><stop offset="70%" stop-color="#890202" stop-opacity="1"></stop></linearGradient></defs><defs><linearGradient id="grad2_0" x1="0%" y1="0%" x2="100%" y2="100%"><stop offset="30%" stop-color="#890202" stop-opacity="1"></stop><stop offset="70%" stop-color="#890202" stop-opacity="1"></stop></linearGradient></defs><g transform="translate(540, 0)"><path d="M0 378C-50.5 374.8 -101.1 371.6 -144.7 349.2C-188.3 326.9 -224.9 285.3 -242.5 242.5C-260.1 199.8 -258.7 155.8 -278.1 115.2C-297.5 74.6 -337.7 37.3 -378 0L0 0Z" fill="#fff"></path></g><g transform="translate(0, 960)"><path d="M0 -378C37.2 -345.5 74.4 -313 124.4 -300.3C174.3 -287.6 237 -294.6 267.3 -267.3C297.6 -239.9 295.5 -178.1 308.6 -127.8C321.6 -77.5 349.8 -38.8 378 0L0 0Z" fill="#fff"></path></g></svg>