<svg id="wave" style="transform:rotate(180deg); transition: 0.3s" viewBox="0 0 1440 340" version="1.1" xmlns="http://www.w3.org/2000/svg"><defs><linearGradient id="sw-gradient-0" x1="0" x2="0" y1="1" y2="0"><stop stop-color="rgba(255, 255, 255, 1)" offset="0%"></stop><stop stop-color="rgba(255, 255, 255, 1)" offset="100%"></stop></linearGradient></defs><path style="transform:translate(0, 0px); opacity:1" fill="url(#sw-gradient-0)" d="M0,68L60,96.3C120,125,240,181,360,181.3C480,181,600,125,720,119C840,113,960,159,1080,147.3C1200,136,1320,68,1440,68C1560,68,1680,136,1800,170C1920,204,2040,204,2160,192.7C2280,181,2400,159,2520,147.3C2640,136,2760,136,2880,119C3000,102,3120,68,3240,45.3C3360,23,3480,11,3600,22.7C3720,34,3840,68,3960,102C4080,136,4200,170,4320,153C4440,136,4560,68,4680,39.7C4800,11,4920,23,5040,34C5160,45,5280,57,5400,85C5520,113,5640,159,5760,198.3C5880,238,6000,272,6120,249.3C6240,227,6360,147,6480,102C6600,57,6720,45,6840,45.3C6960,45,7080,57,7200,79.3C7320,102,7440,136,7560,164.3C7680,193,7800,215,7920,221C8040,227,8160,215,8280,215.3C8400,215,8520,227,8580,232.3L8640,238L8640,340L8580,340C8520,340,8400,340,8280,340C8160,340,8040,340,7920,340C7800,340,7680,340,7560,340C7440,340,7320,340,7200,340C7080,340,6960,340,6840,340C6720,340,6600,340,6480,340C6360,340,6240,340,6120,340C6000,340,5880,340,5760,340C5640,340,5520,340,5400,340C5280,340,5160,340,5040,340C4920,340,4800,340,4680,340C4560,340,4440,340,4320,340C4200,340,4080,340,3960,340C3840,340,3720,340,3600,340C3480,340,3360,340,3240,340C3120,340,3000,340,2880,340C2760,340,2640,340,2520,340C2400,340,2280,340,2160,340C2040,340,1920,340,1800,340C1680,340,1560,340,1440,340C1320,340,1200,340,1080,340C960,340,840,340,720,340C600,340,480,340,360,340C240,340,120,340,60,340L0,340Z"></path></svg>
